<svg xmlns="http://www.w3.org/2000/svg" xmlns:xlink="http://www.w3.org/1999/xlink" width="96" height="96" x="0" y="0" baseProfile="tiny" version="1.1" viewBox="0 0 96 96" xml:space="preserve"><g id="DO_NOT_EDIT_-_BOUNDING_BOX"><rect id="BOUNDING_BOX" width="96" height="96" fill="none"/></g><g id="DO_NOT_EDIT_-_SHADOW"><path id="SHADOW" fill-opacity=".4" stroke-opacity=".4" d="M88.023,49c0,29.633-10.364,40-40,40c-29.635,0-40-10.367-40-40c0-29.634,10.366-40,40-40 C77.659,9,88.023,19.365,88.023,49z"/></g><g id="GRAY_BACKGROUNDS" display="none"><g id="GRAY5" display="inline"><linearGradient id="GRAY_5_1_" x1="47.999" x2="47.999" y1="8.011" y2="87.99" gradientUnits="userSpaceOnUse"><stop offset=".036" style="stop-color:#ddd"/><stop offset=".462" style="stop-color:#bfbfc1"/><stop offset="1" style="stop-color:#949499"/></linearGradient><path id="GRAY_5" fill="url(#GRAY_5_1_)" fill-rule="evenodd" d="M8,47.989c0,29.633,10.365,40,40,40 c29.637,0,40-10.367,40-40c0-28.985-9.926-39.53-38.091-39.979h-3.817C17.928,8.459,8,19.004,8,47.989z"/><linearGradient id="HIGHLIGHT_GRA5_1_" x1="47.999" x2="47.999" y1="8" y2="88.001" gradientUnits="userSpaceOnUse"><stop offset=".036" style="stop-color:#fff"/><stop offset=".337" style="stop-color:#e1e1e3"/><stop offset=".987" style="stop-color:#96969a"/><stop offset="1" style="stop-color:#949499"/></linearGradient><path id="HIGHLIGHT_GRA5" fill="url(#HIGHLIGHT_GRA5_1_)" fill-opacity=".25" stroke-opacity=".25" d="M48,8C18.365,8,8,18.365,8,48 c0,29.633,10.365,40,40,40c29.637,0,40-10.367,40-40C88,18.365,77.637,8,48,8z M48,87.023C18.842,87.023,9,77.176,9,48 S18.842,8.977,48,8.977S87,18.824,87,48S77.158,87.023,48,87.023z"/></g><g id="GRAY4"><linearGradient id="GRAY_4_1_" x1="47.999" x2="47.999" y1="8.011" y2="87.99" gradientUnits="userSpaceOnUse"><stop offset=".036" style="stop-color:#e0e0e0"/><stop offset=".326" style="stop-color:#d6d6d6"/><stop offset=".815" style="stop-color:#bcbcbc"/><stop offset="1" style="stop-color:#b0b0b0"/></linearGradient><path id="GRAY_4" fill="url(#GRAY_4_1_)" fill-rule="evenodd" d="M8,47.989 c0,29.633,10.365,40,40,40c29.637,0,40-10.367,40-40c0-28.985-9.926-39.53-38.091-39.979h-3.817C17.928,8.459,8,19.004,8,47.989z" display="inline"/><linearGradient id="HIGHLIGHT_GRA4_2_" x1="47.999" x2="47.999" y1="8" y2="88.001" gradientUnits="userSpaceOnUse"><stop offset=".036" style="stop-color:#e8e8e8"/><stop offset=".298" style="stop-color:#dedede"/><stop offset=".739" style="stop-color:#c4c4c4"/><stop offset="1" style="stop-color:#b1b1b1"/></linearGradient><path id="HIGHLIGHT_GRA4_1_" fill="url(#HIGHLIGHT_GRA4_2_)" d="M48,8C18.365,8,8,18.365,8,48 c0,29.633,10.365,40,40,40c29.637,0,40-10.367,40-40C88,18.365,77.637,8,48,8z M48,87.023C18.842,87.023,9,77.176,9,48 S18.842,8.977,48,8.977S87,18.824,87,48S77.158,87.023,48,87.023z" display="inline"/></g><g id="GRAY3"><linearGradient id="GRAY_3_1_" x1="47.999" x2="47.999" y1="8.011" y2="87.99" gradientUnits="userSpaceOnUse"><stop offset=".036" style="stop-color:#e9e9e9"/><stop offset=".322" style="stop-color:#dfdfdf"/><stop offset=".803" style="stop-color:#c5c5c5"/><stop offset="1" style="stop-color:#b8b8b8"/></linearGradient><path id="GRAY_3" fill="url(#GRAY_3_1_)" fill-rule="evenodd" d="M8,47.989 c0,29.633,10.365,40,40,40c29.637,0,40-10.367,40-40c0-28.985-9.926-39.53-38.091-39.979h-3.817C17.928,8.459,8,19.004,8,47.989z" display="inline"/><linearGradient id="HIGHLIGHT_GRA3_2_" x1="47.999" x2="47.999" y1="8" y2="88.001" gradientUnits="userSpaceOnUse"><stop offset=".036" style="stop-color:#efefef"/><stop offset=".313" style="stop-color:#e5e5e5"/><stop offset=".78" style="stop-color:#cbcbcb"/><stop offset="1" style="stop-color:#bcbcbc"/></linearGradient><path id="HIGHLIGHT_GRA3_1_" fill="url(#HIGHLIGHT_GRA3_2_)" d="M48,8C18.365,8,8,18.365,8,48 c0,29.633,10.365,40,40,40c29.637,0,40-10.367,40-40C88,18.365,77.637,8,48,8z M48,87.023C18.842,87.023,9,77.176,9,48 S18.842,8.977,48,8.977S87,18.824,87,48S77.158,87.023,48,87.023z" display="inline"/></g><g id="GRAY2"><linearGradient id="GRAY_2_1_" x1="47.999" x2="47.999" y1="8.011" y2="87.99" gradientUnits="userSpaceOnUse"><stop offset=".036" style="stop-color:#eee"/><stop offset=".326" style="stop-color:#e4e4e4"/><stop offset=".815" style="stop-color:#cacaca"/><stop offset="1" style="stop-color:#bebebe"/></linearGradient><path id="GRAY_2" fill="url(#GRAY_2_1_)" fill-rule="evenodd" d="M8,47.989 c0,29.633,10.365,40,40,40c29.637,0,40-10.367,40-40c0-28.985-9.926-39.53-38.091-39.979h-3.817C17.928,8.459,8,19.004,8,47.989z" display="inline"/><linearGradient id="HIGHLIGHT_GRA2_1_" x1="47.999" x2="47.999" y1="8" y2="88.001" gradientUnits="userSpaceOnUse"><stop offset=".036" style="stop-color:#f2f2f2"/><stop offset=".313" style="stop-color:#e8e8e8"/><stop offset=".78" style="stop-color:#cecece"/><stop offset="1" style="stop-color:#bfbfbf"/></linearGradient><path id="HIGHLIGHT_GRA2" fill="url(#HIGHLIGHT_GRA2_1_)" d="M48,8C18.365,8,8,18.365,8,48 c0,29.633,10.365,40,40,40c29.637,0,40-10.367,40-40C88,18.365,77.637,8,48,8z M48,87.023C18.842,87.023,9,77.176,9,48 S18.842,8.977,48,8.977S87,18.824,87,48S77.158,87.023,48,87.023z" display="inline"/></g><g id="GRAY1"><linearGradient id="GRAY_1_1_" x1="47.999" x2="47.999" y1="8.011" y2="87.99" gradientUnits="userSpaceOnUse"><stop offset=".036" style="stop-color:#f9f9f9"/><stop offset=".21" style="stop-color:#efefef"/><stop offset=".504" style="stop-color:#d6d6d5"/><stop offset=".83" style="stop-color:#b2b2b0"/><stop offset="1" style="stop-color:#ababa8"/></linearGradient><path id="GRAY_1" fill="url(#GRAY_1_1_)" fill-rule="evenodd" d="M8,47.989 c0,29.633,10.365,40,40,40c29.637,0,40-10.367,40-40c0-28.985-9.926-39.53-38.091-39.979h-3.817C17.928,8.459,8,19.004,8,47.989z" display="inline"/><linearGradient id="HIGHLIGHT_GRA1_1_" x1="47.999" x2="47.999" y1="8" y2="88.001" gradientUnits="userSpaceOnUse"><stop offset=".036" style="stop-color:#fcfcfc"/><stop offset=".226" style="stop-color:#f3f3f2"/><stop offset=".547" style="stop-color:#dad9d8"/><stop offset=".958" style="stop-color:#b2b0ad"/><stop offset="1" style="stop-color:#adaba8"/></linearGradient><path id="HIGHLIGHT_GRA1" fill="url(#HIGHLIGHT_GRA1_1_)" d="M48,8C18.365,8,8,18.365,8,48 c0,29.633,10.365,40,40,40c29.637,0,40-10.367,40-40C88,18.365,77.637,8,48,8z M48,87.023C18.842,87.023,9,77.176,9,48 S18.842,8.977,48,8.977S87,18.824,87,48S77.158,87.023,48,87.023z" display="inline"/></g></g><g id="ORANGE_BACKGROUNDS" display="none"><g id="ORANGE_5" display="inline"><linearGradient id="RED_x2F_ORANGE_5_2_" x1="47.999" x2="47.999" y1="8.011" y2="87.99" gradientUnits="userSpaceOnUse"><stop offset="0" style="stop-color:#ffdb62"/><stop offset=".139" style="stop-color:#fad15c"/><stop offset=".374" style="stop-color:#edb74d"/><stop offset=".485" style="stop-color:#e6a844"/><stop offset="1" style="stop-color:#c96b25"/></linearGradient><path id="RED_x2F_ORANGE_5_1_" fill="url(#RED_x2F_ORANGE_5_2_)" d="M8,47.988c0,29.634,10.365,40.001,40,40.001 c29.637,0,40-10.367,40-40.001c0-28.984-9.926-39.529-38.091-39.978h-3.817C17.928,8.459,8,19.004,8,47.988z"/><linearGradient id="HIGHLIGHTS_RO5_1_" x1="47.999" x2="47.999" y1="8.256" y2="87.504" gradientUnits="userSpaceOnUse"><stop offset="0" style="stop-color:#fff"/><stop offset=".096" style="stop-color:#fdf8f5"/><stop offset=".258" style="stop-color:#f6e6db"/><stop offset=".467" style="stop-color:#ebc9af"/><stop offset=".714" style="stop-color:#dca073"/><stop offset=".99" style="stop-color:#ca6d28"/><stop offset="1" style="stop-color:#c96b25"/></linearGradient><path id="HIGHLIGHTS_RO5" fill="url(#HIGHLIGHTS_RO5_1_)" fill-opacity=".25" stroke-opacity=".25" d="M48,8C18.365,8,8,18.365,8,48 c0,29.633,10.365,40,40,40c29.637,0,40-10.367,40-40C88,18.365,77.637,8,48,8z M48,87.023C18.842,87.023,9,77.176,9,48 S18.842,8.977,48,8.977S87,18.824,87,48S77.158,87.023,48,87.023z"/></g><g id="ORANGE_4"><linearGradient id="RED_x2F_ORANGE_4_1_" x1="47.999" x2="47.999" y1="8.011" y2="87.99" gradientUnits="userSpaceOnUse"><stop offset=".036" style="stop-color:#fbbf60"/><stop offset=".211" style="stop-color:#f8b556"/><stop offset=".503" style="stop-color:#f19b3d"/><stop offset="1" style="stop-color:#c76121"/></linearGradient><path id="RED_x2F_ORANGE_4_2_" fill="url(#RED_x2F_ORANGE_4_1_)" d="M8,47.988c0,29.634,10.365,40.001,40,40.001 c29.637,0,40-10.367,40-40.001c0-28.984-9.926-39.529-38.091-39.978h-3.817C17.928,8.459,8,19.004,8,47.988z" display="inline"/><linearGradient id="HIGHLIGHTS_RO4_2_" x1="47.999" x2="47.999" y1="8.256" y2="87.504" gradientUnits="userSpaceOnUse"><stop offset=".036" style="stop-color:#fff"/><stop offset=".127" style="stop-color:#fdf8f5"/><stop offset=".281" style="stop-color:#f6e5db"/><stop offset=".48" style="stop-color:#ebc6af"/><stop offset=".715" style="stop-color:#dc9c73"/><stop offset=".978" style="stop-color:#c96628"/><stop offset="1" style="stop-color:#c76121"/></linearGradient><path id="HIGHLIGHTS_RO4_1_" fill="url(#HIGHLIGHTS_RO4_2_)" fill-opacity=".25" stroke-opacity=".25" d="M48,8C18.365,8,8,18.365,8,48 c0,29.633,10.365,40,40,40c29.637,0,40-10.367,40-40C88,18.365,77.637,8,48,8z M48,87.023C18.842,87.023,9,77.176,9,48 S18.842,8.977,48,8.977S87,18.824,87,48S77.158,87.023,48,87.023z" display="inline"/></g><g id="ORANGE_3"><linearGradient id="RED_x2F_ORANGE_3_2_" x1="47.999" x2="47.999" y1="8.011" y2="87.99" gradientUnits="userSpaceOnUse"><stop offset=".036" style="stop-color:#f6b85e"/><stop offset=".201" style="stop-color:#f4ae5a"/><stop offset=".478" style="stop-color:#ee9451"/><stop offset=".539" style="stop-color:#ec8d4e"/><stop offset=".823" style="stop-color:#d46a3b"/><stop offset="1" style="stop-color:#c95932"/></linearGradient><path id="RED_x2F_ORANGE_3_1_" fill="url(#RED_x2F_ORANGE_3_2_)" d="M8,47.988c0,29.634,10.365,40.001,40,40.001 c29.637,0,40-10.367,40-40.001c0-28.984-9.926-39.529-38.091-39.978h-3.817C17.928,8.459,8,19.004,8,47.988z" display="inline"/><linearGradient id="HIGHLIGHTS_RO3_2_" x1="47.999" x2="47.999" y1="8.256" y2="87.504" gradientUnits="userSpaceOnUse"><stop offset=".036" style="stop-color:#fff"/><stop offset=".133" style="stop-color:#fcf7f5"/><stop offset=".297" style="stop-color:#f5e2db"/><stop offset=".507" style="stop-color:#eabfaf"/><stop offset=".754" style="stop-color:#da8f74"/><stop offset="1" style="stop-color:#c95932"/></linearGradient><path id="HIGHLIGHTS_RO3_1_" fill="url(#HIGHLIGHTS_RO3_2_)" fill-opacity=".25" stroke-opacity=".25" d="M48,8C18.365,8,8,18.365,8,48 c0,29.633,10.365,40,40,40c29.637,0,40-10.367,40-40C88,18.365,77.637,8,48,8z M48,87.023C18.842,87.023,9,77.176,9,48 S18.842,8.977,48,8.977S87,18.824,87,48S77.158,87.023,48,87.023z" display="inline"/></g><g id="ORANGE_2"><linearGradient id="RED_x2F_ORANGE_2_1_" x1="47.999" x2="47.999" y1="8.011" y2="87.99" gradientUnits="userSpaceOnUse"><stop offset=".036" style="stop-color:#faa824"/><stop offset=".374" style="stop-color:#ea8a20"/><stop offset="1" style="stop-color:#c74a17"/></linearGradient><path id="RED_x2F_ORANGE_2_2_" fill="url(#RED_x2F_ORANGE_2_1_)" d="M8,47.988c0,29.634,10.365,40.001,40,40.001 c29.637,0,40-10.367,40-40.001c0-28.984-9.926-39.529-38.091-39.978h-3.817C17.928,8.459,8,19.004,8,47.988z" display="inline"/><linearGradient id="HIGHLIGHTS_RO2_1_" x1="47.999" x2="47.999" y1="8.256" y2="87.504" gradientUnits="userSpaceOnUse"><stop offset=".036" style="stop-color:#fff"/><stop offset=".185" style="stop-color:#f8e8e1"/><stop offset=".51" style="stop-color:#e5ac95"/><stop offset=".983" style="stop-color:#c84d1b"/><stop offset="1" style="stop-color:#c74a17"/></linearGradient><path id="HIGHLIGHTS_RO2_2_" fill="url(#HIGHLIGHTS_RO2_1_)" fill-opacity=".25" stroke-opacity=".25" d="M48,8C18.365,8,8,18.365,8,48 c0,29.633,10.365,40,40,40c29.637,0,40-10.367,40-40C88,18.365,77.637,8,48,8z M48,87.023C18.842,87.023,9,77.176,9,48 S18.842,8.977,48,8.977S87,18.824,87,48S77.158,87.023,48,87.023z" display="inline"/></g><g id="ORANGE_1"><linearGradient id="RED_x2F_ORANGE_1_2_" x1="47.999" x2="47.999" y1="8.011" y2="87.99" gradientUnits="userSpaceOnUse"><stop offset=".036" style="stop-color:#ff8a36"/><stop offset=".349" style="stop-color:#ef7130"/><stop offset="1" style="stop-color:#c73321"/></linearGradient><path id="RED_x2F_ORANGE_1_1_" fill="url(#RED_x2F_ORANGE_1_2_)" d="M8,47.988c0,29.634,10.365,40.001,40,40.001 c29.637,0,40-10.367,40-40.001c0-28.984-9.926-39.529-38.091-39.978h-3.817C17.928,8.459,8,19.004,8,47.988z" display="inline"/><linearGradient id="HIGHLIGHTS_RO1_2_" x1="47.999" x2="47.999" y1="8.256" y2="87.504" gradientUnits="userSpaceOnUse"><stop offset=".036" style="stop-color:#fff"/><stop offset=".127" style="stop-color:#fcf7f5"/><stop offset=".281" style="stop-color:#f5e0db"/><stop offset=".48" style="stop-color:#eabbaf"/><stop offset=".715" style="stop-color:#da8873"/><stop offset=".978" style="stop-color:#c64828"/><stop offset="1" style="stop-color:#c44221"/></linearGradient><path id="HIGHLIGHTS_RO1_1_" fill="url(#HIGHLIGHTS_RO1_2_)" fill-opacity=".25" stroke-opacity=".25" d="M48,8C18.365,8,8,18.365,8,48 c0,29.633,10.365,40,40,40c29.637,0,40-10.367,40-40C88,18.365,77.637,8,48,8z M48,87.023C18.842,87.023,9,77.176,9,48 S18.842,8.977,48,8.977S87,18.824,87,48S77.158,87.023,48,87.023z" display="inline"/></g></g><g id="GREEN_BACKGROUNDS" display="none"><g id="GREEN4" display="inline"><linearGradient id="GREEN_4_1_" x1="47.999" x2="47.999" y1="8.011" y2="87.99" gradientUnits="userSpaceOnUse"><stop offset=".036" style="stop-color:#6bab40"/><stop offset=".606" style="stop-color:#537734"/><stop offset="1" style="stop-color:#4f5c26"/></linearGradient><path id="GREEN_4_3_" fill="url(#GREEN_4_1_)" fill-rule="evenodd" d="M8,47.989c0,29.633,10.365,40,40,40 c29.637,0,40-10.367,40-40c0-28.985-9.926-39.53-38.091-39.979h-3.817C17.928,8.459,8,19.004,8,47.989z"/><linearGradient id="HIGHLIGHT_GR4_1_" x1="47.999" x2="47.999" y1="8" y2="88.001" gradientUnits="userSpaceOnUse"><stop offset=".036" style="stop-color:#fff"/><stop offset=".826" style="stop-color:#6f7a4e"/><stop offset="1" style="stop-color:#4f5c26"/></linearGradient><path id="HIGHLIGHT_GR4" fill="url(#HIGHLIGHT_GR4_1_)" fill-opacity=".25" stroke-opacity=".25" d="M48,8C18.365,8,8,18.365,8,48c0,29.633,10.365,40,40,40 c29.637,0,40-10.367,40-40C88,18.365,77.637,8,48,8z M48,87.023C18.842,87.023,9,77.176,9,48S18.842,8.977,48,8.977 S87,18.824,87,48S77.158,87.023,48,87.023z"/></g><g id="GREEN3"><linearGradient id="GREEN_3_1_" x1="47.999" x2="47.999" y1="8.011" y2="87.99" gradientUnits="userSpaceOnUse"><stop offset=".036" style="stop-color:#70b83b"/><stop offset=".207" style="stop-color:#6aae37"/><stop offset=".494" style="stop-color:#5b942b"/><stop offset=".863" style="stop-color:#426917"/><stop offset="1" style="stop-color:#38570f"/></linearGradient><path id="GREEN_3_2_" fill="url(#GREEN_3_1_)" fill-rule="evenodd" d="M8,47.989 c0,29.633,10.365,40,40,40c29.637,0,40-10.367,40-40c0-28.985-9.926-39.53-38.091-39.979h-3.817C17.928,8.459,8,19.004,8,47.989z" display="inline"/><linearGradient id="HIGHLIGHT_GR3_1_" x1="47.999" x2="47.999" y1="8" y2="88.001" gradientUnits="userSpaceOnUse"><stop offset=".036" style="stop-color:#fff"/><stop offset=".122" style="stop-color:#f7f8f5"/><stop offset=".268" style="stop-color:#e1e5db"/><stop offset=".455" style="stop-color:#bdc7af"/><stop offset=".676" style="stop-color:#8b9d73"/><stop offset=".924" style="stop-color:#4d6828"/><stop offset="1" style="stop-color:#38570f"/></linearGradient><path id="HIGHLIGHT_GR3" fill="url(#HIGHLIGHT_GR3_1_)" fill-opacity=".25" stroke-opacity=".25" d="M48,8C18.365,8,8,18.365,8,48 c0,29.633,10.365,40,40,40c29.637,0,40-10.367,40-40C88,18.365,77.637,8,48,8z M48,87.023C18.842,87.023,9,77.176,9,48 S18.842,8.977,48,8.977S87,18.824,87,48S77.158,87.023,48,87.023z" display="inline"/></g><g id="GREEN2"><linearGradient id="GREEN_2_1_" x1="47.999" x2="47.999" y1="8.011" y2="87.99" gradientUnits="userSpaceOnUse"><stop offset=".036" style="stop-color:#75b561"/><stop offset=".223" style="stop-color:#6eab5e"/><stop offset=".538" style="stop-color:#5b9157"/><stop offset=".667" style="stop-color:#528454"/><stop offset="1" style="stop-color:#4b6145"/></linearGradient><path id="GREEN_2_2_" fill="url(#GREEN_2_1_)" fill-rule="evenodd" d="M8,47.989 c0,29.633,10.365,40,40,40c29.637,0,40-10.367,40-40c0-28.985-9.926-39.53-38.091-39.979h-3.817C17.928,8.459,8,19.004,8,47.989z" display="inline"/><linearGradient id="HIGHLIGHT_GR2_1_" x1="47.999" x2="47.999" y1="8" y2="88.001" gradientUnits="userSpaceOnUse"><stop offset=".036" style="stop-color:#fff"/><stop offset=".14" style="stop-color:#f5f7f5"/><stop offset=".317" style="stop-color:#dce0db"/><stop offset=".543" style="stop-color:#b2bbaf"/><stop offset=".808" style="stop-color:#798974"/><stop offset="1" style="stop-color:#4b6145"/></linearGradient><path id="HIGHLIGHT_GR2" fill="url(#HIGHLIGHT_GR2_1_)" fill-opacity=".25" stroke-opacity=".25" d="M48,8C18.365,8,8,18.365,8,48 c0,29.633,10.365,40,40,40c29.637,0,40-10.367,40-40C88,18.365,77.637,8,48,8z M48,87.023C18.842,87.023,9,77.176,9,48 S18.842,8.977,48,8.977S87,18.824,87,48S77.158,87.023,48,87.023z" display="inline"/></g><g id="GREEN1"><linearGradient id="GREEN_1_1_" x1="47.999" x2="47.999" y1="8.011" y2="87.99" gradientUnits="userSpaceOnUse"><stop offset=".036" style="stop-color:#9cd061"/><stop offset=".219" style="stop-color:#94c957"/><stop offset=".527" style="stop-color:#7db63d"/><stop offset=".691" style="stop-color:#6faa2c"/><stop offset="1" style="stop-color:#4a8021"/></linearGradient><path id="GREEN_1_2_" fill="url(#GREEN_1_1_)" fill-rule="evenodd" d="M8,47.989 c0,29.633,10.365,40,40,40c29.637,0,40-10.367,40-40c0-28.985-9.926-39.53-38.091-39.979h-3.817C17.928,8.459,8,19.004,8,47.989z" display="inline"/><linearGradient id="HIGHLIGHT_GR1_1_" x1="47.999" x2="47.999" y1="8" y2="88.001" gradientUnits="userSpaceOnUse"><stop offset=".036" style="stop-color:#fff"/><stop offset=".127" style="stop-color:#f7f9f5"/><stop offset=".281" style="stop-color:#e1eadb"/><stop offset=".48" style="stop-color:#bed1af"/><stop offset=".715" style="stop-color:#8daf73"/><stop offset=".978" style="stop-color:#4f8428"/><stop offset="1" style="stop-color:#4a8021"/></linearGradient><path id="HIGHLIGHT_GR1" fill="url(#HIGHLIGHT_GR1_1_)" fill-opacity=".25" stroke-opacity=".25" d="M48,8C18.365,8,8,18.365,8,48 c0,29.633,10.365,40,40,40c29.637,0,40-10.367,40-40C88,18.365,77.637,8,48,8z M48,87.023C18.842,87.023,9,77.176,9,48 S18.842,8.977,48,8.977S87,18.824,87,48S77.158,87.023,48,87.023z" display="inline"/></g></g><g id="BLUE_BACKGROUNDS"><g id="BLUE_4_2_"><linearGradient id="BLUE_4_3_" x1="47.999" x2="47.999" y1="8.011" y2="87.99" gradientUnits="userSpaceOnUse"><stop offset=".036" style="stop-color:#4791d9"/><stop offset=".25" style="stop-color:#4288cf"/><stop offset=".61" style="stop-color:#366eb5"/><stop offset="1" style="stop-color:#264c91"/></linearGradient><path id="BLUE_4_1_" fill="url(#BLUE_4_3_)" d="M8,47.989c0,29.633,10.365,40,40,40c29.637,0,40-10.367,40-40 c0-28.985-9.926-39.53-38.091-39.979h-3.817C17.928,8.459,8,19.004,8,47.989z"/><linearGradient id="HIGHLIGHT_BLU4_1_" x1="47.999" x2="47.999" y1="8.256" y2="87.504" gradientUnits="userSpaceOnUse"><stop offset=".036" style="stop-color:#fff"/><stop offset=".129" style="stop-color:#f5f7fa"/><stop offset=".286" style="stop-color:#dbe1ed"/><stop offset=".488" style="stop-color:#afbdd7"/><stop offset=".727" style="stop-color:#738cb8"/><stop offset=".994" style="stop-color:#284d92"/><stop offset="1" style="stop-color:#264c91"/></linearGradient><path id="HIGHLIGHT_BLU4" fill="url(#HIGHLIGHT_BLU4_1_)" fill-opacity=".25" stroke-opacity=".25" d="M48,8C18.365,8,8,18.365,8,48 c0,29.633,10.365,40,40,40c29.637,0,40-10.367,40-40C88,18.365,77.637,8,48,8z M48,87.023C18.842,87.023,9,77.176,9,48 S18.842,8.977,48,8.977S87,18.824,87,48S77.158,87.023,48,87.023z"/></g><g id="BLUE_3_2_" display="none"><linearGradient id="BLUE_3_3_" x1="47.999" x2="47.999" y1="8.011" y2="87.99" gradientUnits="userSpaceOnUse"><stop offset=".036" style="stop-color:#66a2d3"/><stop offset=".2" style="stop-color:#5c9bce"/><stop offset=".477" style="stop-color:#4289c1"/><stop offset=".832" style="stop-color:#176cab"/><stop offset="1" style="stop-color:#005da0"/></linearGradient><path id="BLUE_3_1_" fill="url(#BLUE_3_3_)" d="M8,47.989c0,29.633,10.365,40,40,40c29.637,0,40-10.367,40-40 c0-28.985-9.926-39.53-38.091-39.979h-3.817C17.928,8.459,8,19.004,8,47.989z" display="inline"/><linearGradient id="HIGHLIGHT_BLU3_1_" x1="47.999" x2="47.999" y1="8.256" y2="87.504" gradientUnits="userSpaceOnUse"><stop offset=".036" style="stop-color:#fff"/><stop offset=".118" style="stop-color:#f5f9fc"/><stop offset=".257" style="stop-color:#dbe9f5"/><stop offset=".436" style="stop-color:#afcfea"/><stop offset=".647" style="stop-color:#73acda"/><stop offset=".884" style="stop-color:#287fc6"/><stop offset="1" style="stop-color:#0067bc"/></linearGradient><path id="HIGHLIGHT_BLU3" fill="url(#HIGHLIGHT_BLU3_1_)" fill-opacity=".25" stroke-opacity=".25" d="M48,8C18.365,8,8,18.365,8,48 c0,29.633,10.365,40,40,40c29.637,0,40-10.367,40-40C88,18.365,77.637,8,48,8z M48,87.023C18.842,87.023,9,77.176,9,48 S18.842,8.977,48,8.977S87,18.824,87,48S77.158,87.023,48,87.023z" display="inline"/></g><g id="BLUE_2_2_" display="none"><linearGradient id="BLUE_2_3_" x1="47.999" x2="47.999" y1="8.011" y2="87.99" gradientUnits="userSpaceOnUse"><stop offset=".036" style="stop-color:#63b3e0"/><stop offset=".204" style="stop-color:#59acda"/><stop offset=".487" style="stop-color:#3f99c9"/><stop offset=".85" style="stop-color:#147bae"/><stop offset="1" style="stop-color:#006da2"/></linearGradient><path id="BLUE_2_1_" fill="url(#BLUE_2_3_)" d="M8,47.989c0,29.633,10.365,40,40,40c29.637,0,40-10.367,40-40 c0-28.985-9.926-39.53-38.091-39.979h-3.817C17.928,8.459,8,19.004,8,47.989z" display="inline"/><linearGradient id="HIGHLIGHT_BLU2_1_" x1="47.999" x2="47.999" y1="8.256" y2="87.504" gradientUnits="userSpaceOnUse"><stop offset=".036" style="stop-color:#fff"/><stop offset=".123" style="stop-color:#f5f9fb"/><stop offset=".27" style="stop-color:#dbe7f0"/><stop offset=".46" style="stop-color:#afcbdd"/><stop offset=".684" style="stop-color:#73a4c4"/><stop offset=".935" style="stop-color:#2873a4"/><stop offset="1" style="stop-color:#13659b"/></linearGradient><path id="HIGHLIGHT_BLU2" fill="url(#HIGHLIGHT_BLU2_1_)" fill-opacity=".25" stroke-opacity=".25" d="M48,8C18.365,8,8,18.365,8,48 c0,29.633,10.365,40,40,40c29.637,0,40-10.367,40-40C88,18.365,77.637,8,48,8z M48,87.023C18.842,87.023,9,77.176,9,48 S18.842,8.977,48,8.977S87,18.824,87,48S77.158,87.023,48,87.023z" display="inline"/></g><g id="BLUE_1_1_" display="none"><linearGradient id="BLUE_1_3_" x1="47.999" x2="47.999" y1="8.011" y2="87.99" gradientUnits="userSpaceOnUse"><stop offset=".036" style="stop-color:#6bcfdb"/><stop offset=".194" style="stop-color:#61c7d4"/><stop offset=".462" style="stop-color:#47b0c3"/><stop offset=".803" style="stop-color:#1c8ca6"/><stop offset="1" style="stop-color:#007594"/></linearGradient><path id="BLUE_1_2_" fill="url(#BLUE_1_3_)" d="M8,47.989c0,29.633,10.365,40,40,40c29.637,0,40-10.367,40-40 c0-28.985-9.926-39.53-38.091-39.979h-3.817C17.928,8.459,8,19.004,8,47.989z" display="inline"/><linearGradient id="HIGHLIGHT_BLU1_1_" x1="47.999" x2="47.999" y1="8.256" y2="87.504" gradientUnits="userSpaceOnUse"><stop offset=".036" style="stop-color:#fffdf2"/><stop offset=".106" style="stop-color:#f5f8f0"/><stop offset=".225" style="stop-color:#dbebe9"/><stop offset=".377" style="stop-color:#afd5df"/><stop offset=".539" style="stop-color:#7abad2"/><stop offset="1" style="stop-color:#00879a"/></linearGradient><path id="HIGHLIGHT_BLU1" fill="url(#HIGHLIGHT_BLU1_1_)" fill-opacity=".25" stroke-opacity=".25" d="M48,8C18.365,8,8,18.365,8,48 c0,29.633,10.365,40,40,40c29.637,0,40-10.367,40-40C88,18.365,77.637,8,48,8z M48,87.023C18.842,87.023,9,77.176,9,48 S18.842,8.977,48,8.977S87,18.824,87,48S77.158,87.023,48,87.023z" display="inline"/></g></g><g id="VIOLET_x2F_PINK_BACKGROUNDS" display="none"><g id="PINK_2_2_" display="inline"><linearGradient id="PINK_2_3_" x1="47.999" x2="47.999" y1="8.011" y2="87.99" gradientUnits="userSpaceOnUse"><stop offset=".036" style="stop-color:#ff61c7"/><stop offset=".194" style="stop-color:#f759c1"/><stop offset=".438" style="stop-color:#e145b1"/><stop offset=".736" style="stop-color:#be2396"/><stop offset="1" style="stop-color:#99007a"/></linearGradient><path id="PINK_2_1_" fill="url(#PINK_2_3_)" d="M8,47.988c0,29.634,10.365,40.001,40,40.001c29.637,0,40-10.367,40-40.001 c0-28.984-9.926-39.529-38.091-39.978h-3.817C17.928,8.459,8,19.004,8,47.988z"/><linearGradient id="HIGHLIGHT_PI2_2_" x1="47.999" x2="47.999" y1="8.255" y2="87.504" gradientUnits="userSpaceOnUse"><stop offset=".036" style="stop-color:#fff"/><stop offset=".119" style="stop-color:#fcf7fb"/><stop offset=".247" style="stop-color:#f3e1f0"/><stop offset=".404" style="stop-color:#e5bedd"/><stop offset=".584" style="stop-color:#d18cc3"/><stop offset=".784" style="stop-color:#b84da2"/><stop offset=".997" style="stop-color:#99017b"/><stop offset="1" style="stop-color:#99007a"/></linearGradient><path id="HIGHLIGHT_PI2_1_" fill="url(#HIGHLIGHT_PI2_2_)" fill-opacity=".25" stroke-opacity=".25" d="M48,8C18.365,8,8,18.365,8,48 c0,29.632,10.365,40,40,40c29.637,0,40-10.367,40-40C88,18.365,77.637,8,48,8z M48,87.023C18.842,87.023,9,77.176,9,48 C9,18.824,18.842,8.976,48,8.976S87,18.824,87,48C87,77.176,77.158,87.023,48,87.023z"/></g><g id="PINK_1_2_"><linearGradient id="PINK_1_3_" x1="47.999" x2="47.999" y1="8.011" y2="87.99" gradientUnits="userSpaceOnUse"><stop offset=".036" style="stop-color:#e64dd4"/><stop offset=".216" style="stop-color:#de46ce"/><stop offset=".493" style="stop-color:#c832bc"/><stop offset=".832" style="stop-color:#a5129f"/><stop offset="1" style="stop-color:#91008f"/></linearGradient><path id="PINK_1_1_" fill="url(#PINK_1_3_)" d="M8,47.989c0,29.633,10.365,40,40,40c29.637,0,40-10.367,40-40 c0-28.985-9.926-39.53-38.091-39.979h-3.817C17.928,8.459,8,19.004,8,47.989z" display="inline"/><linearGradient id="HIGHLIGHT_PI2_3_" x1="47.999" x2="47.999" y1="8.255" y2="87.504" gradientUnits="userSpaceOnUse"><stop offset=".036" style="stop-color:#fff"/><stop offset=".119" style="stop-color:#fcf7fc"/><stop offset=".247" style="stop-color:#f2e1f2"/><stop offset=".404" style="stop-color:#e3bee2"/><stop offset=".584" style="stop-color:#ce8ccd"/><stop offset=".784" style="stop-color:#b24db1"/><stop offset=".997" style="stop-color:#91018f"/><stop offset="1" style="stop-color:#91008f"/></linearGradient><path id="HIGHLIGHT_PI2" fill="url(#HIGHLIGHT_PI2_3_)" fill-opacity=".25" stroke-opacity=".25" d="M48,8C18.365,8,8,18.365,8,48 c0,29.632,10.365,40,40,40c29.637,0,40-10.367,40-40C88,18.365,77.637,8,48,8z M48,87.023C18.842,87.023,9,77.176,9,48 C9,18.824,18.842,8.976,48,8.976S87,18.824,87,48C87,77.176,77.158,87.023,48,87.023z" display="inline"/></g><g id="VIOLET_2_2_"><linearGradient id="VIOLET_2_3_" x1="47.999" x2="47.999" y1="8.011" y2="90.757" gradientUnits="userSpaceOnUse"><stop offset=".036" style="stop-color:#ba66e0"/><stop offset=".217" style="stop-color:#b260d8"/><stop offset=".497" style="stop-color:#9d51c2"/><stop offset=".839" style="stop-color:#7c379f"/><stop offset="1" style="stop-color:#69298c"/></linearGradient><path id="VIOLET_2_1_" fill="url(#VIOLET_2_3_)" d="M8,47.989c0,29.633,10.365,40,40,40 c29.637,0,40-10.367,40-40c0-28.985-9.926-39.53-38.091-39.979h-3.817C17.928,8.459,8,19.004,8,47.989z" display="inline"/><linearGradient id="HIGHLIGHT_VIO2_1_" x1="47.999" x2="47.999" y1="8.255" y2="87.504" gradientUnits="userSpaceOnUse"><stop offset=".036" style="stop-color:#fff"/><stop offset=".13" style="stop-color:#f9f7fb"/><stop offset=".275" style="stop-color:#eae1ef"/><stop offset=".452" style="stop-color:#d1bedc"/><stop offset=".656" style="stop-color:#af8cc1"/><stop offset=".879" style="stop-color:#834ea0"/><stop offset="1" style="stop-color:#69298c"/></linearGradient><path id="HIGHLIGHT_VIO2" fill="url(#HIGHLIGHT_VIO2_1_)" fill-opacity=".25" stroke-opacity=".25" d="M48,8C18.365,8,8,18.365,8,48 c0,29.632,10.365,40,40,40c29.637,0,40-10.367,40-40C88,18.365,77.637,8,48,8z M48,87.023C18.842,87.023,9,77.176,9,48 C9,18.824,18.842,8.976,48,8.976S87,18.824,87,48C87,77.176,77.158,87.023,48,87.023z" display="inline"/></g><g id="VIOLET_1_2_"><linearGradient id="VIOLET_1_3_" x1="47.999" x2="47.999" y1="9.762" y2="89.741" gradientUnits="userSpaceOnUse"><stop offset=".036" style="stop-color:#a14ddb"/><stop offset=".221" style="stop-color:#9949d3"/><stop offset=".505" style="stop-color:#833cbe"/><stop offset=".852" style="stop-color:#60299d"/><stop offset="1" style="stop-color:#4f1f8c"/></linearGradient><path id="VIOLET_1_1_" fill="url(#VIOLET_1_3_)" d="M8,47.989c0,29.633,10.365,40,40,40 c29.637,0,40-10.367,40-40c0-28.985-9.926-39.53-38.091-39.979h-3.817C17.928,8.459,8,19.004,8,47.989z" display="inline"/><linearGradient id="HIGHLIGHT_VIO1_1_" x1="47.999" x2="47.999" y1="8.255" y2="87.504" gradientUnits="userSpaceOnUse"><stop offset=".036" style="stop-color:#fff"/><stop offset="1" style="stop-color:#4a1f8c"/></linearGradient><path id="HIGHLIGHT_VIO1" fill="url(#HIGHLIGHT_VIO1_1_)" fill-opacity=".25" stroke-opacity=".25" d="M48,8C18.365,8,8,18.365,8,48 c0,29.632,10.365,40,40,40c29.637,0,40-10.367,40-40C88,18.365,77.637,8,48,8z M48,87.023C18.842,87.023,9,77.176,9,48 C9,18.824,18.842,8.977,48,8.977S87,18.824,87,48C87,77.176,77.158,87.023,48,87.023z" display="inline"/></g></g><g id="PLACE_YOUR_GRAPHIC_HERE"><path fill="#FFF" stroke="#000" stroke-miterlimit="10" stroke-width=".25" d="M44.508,20.756v2.558h5.114v-2.558H44.508z M36.835,41.216v2.045c0.067,0.116-0.083,0.409,0,0.512c0.033,0.041,0.45,0,0.511,0h1.023c0.15,0,0.367-0.037,0.511,0 c0.091,0.022,0.45-0.063,0.512,0v-2.558H36.835z M31.719,43.774v5.115h2.559v-5.115H31.719z M34.278,25.871h-7.674v7.672h7.674 V25.871z M75.199,20.756H57.297v17.903h17.902V20.756z M72.641,36.1H59.854V23.313h12.787V36.1z M70.084,25.871h-7.673v7.672h7.673 V25.871z M39.393,20.756H21.49v17.903h17.903V20.756z M36.835,36.1H24.047V23.313h12.788V36.1z M26.604,69.35h7.674v-7.673h-7.674 V69.35z M21.49,74.465h17.903V56.561H21.49V74.465z M24.047,59.118h12.788v12.788H24.047V59.118z M54.738,41.216V36.1H52.18v5.116 H54.738z M31.719,51.958c-0.066-0.117,0.084-0.41,0-0.513c-0.032-0.04-0.45,0-0.51,0c-0.166,0-0.348,0.02-0.512,0 c-0.165-0.02-0.346,0-0.512,0h-1.022v-5.114h-2.046c-0.116,0.067-0.409-0.083-0.512,0c-0.041,0.033,0,0.452,0,0.512 c0,0.156,0.031,0.358,0,0.512c-0.031,0.152,0,0.354,0,0.511c0,0.15,0.037,0.366,0,0.511c-0.022,0.091,0.063,0.45,0,0.512 c-0.085,0.085-0.409-0.068-0.511,0h-2.046c0.085,0.085-0.069,0.409,0,0.512v2.045H21.49v2.558h10.229V51.958z M29.163,41.216 h-5.116v2.558h5.116V41.216z M21.49,43.774v5.115h1.023c0.165,0,0.347-0.02,0.512,0c0.167,0.02,0.342-0.009,0.511,0 c0.075,0.004,0.463-0.048,0.512,0v-5.115H21.49z M64.968,61.677v-2.559h-2.557v2.559H64.968z M44.508,74.465h2.557v-1.023 c0-0.165-0.019-0.349,0-0.511c0.02-0.168-0.009-0.345,0-0.513c0.004-0.073-0.048-0.464,0-0.512h-2.557V74.465z M59.854,59.118 v-2.558h-2.557v2.558H59.854z M70.084,59.118v-2.558h-2.558v2.558H70.084z M41.95,66.792v5.114h2.558v-5.114H41.95z M72.641,59.118 h2.559v-2.558h-2.559V59.118z M75.199,71.906c-0.034-0.041-0.452,0-0.512,0h-1.022c-0.15,0-0.366,0.036-0.513,0 c-0.092-0.023-0.45,0.062-0.512,0c-0.085-0.085,0.067-0.409,0-0.512V69.35h2.559v-2.558h-5.115v2.558h-2.558v-2.558h2.558v-2.557 h5.115v-2.559h-7.673v2.559h-2.559v2.557h-2.557v-2.557h-2.558v-2.559h-2.047c-0.116,0.065-0.409-0.085-0.51,0 c-0.042,0.034,0,0.451,0,0.511c0,0.165,0.018,0.35,0,0.512c-0.021,0.164,0,0.346,0,0.512v1.024h-2.559v2.557H52.18v-2.557h-7.672 v2.557h5.114v2.558h-2.557v2.557c0.086-0.085,0.41,0.067,0.512,0h2.045v2.559h25.577v-2.047 C75.132,72.303,75.282,72.008,75.199,71.906z M54.738,71.906H52.18V69.35h2.559V71.906z M59.854,69.35h-2.557v-2.558h2.557V69.35z M64.968,71.906h-2.557V69.35h2.557V71.906z M54.738,61.677H52.18v2.559h2.559V61.677z M47.065,51.445v-2.557H41.95v7.672h2.558 v-5.115H47.065z M45.019,43.774h2.046v5.115h2.557v2.557h5.116v2.558h15.346v-5.114h-2.558v-2.558h2.558v-2.046 c-0.067-0.117,0.083-0.41,0-0.511c-0.034-0.041-0.451,0-0.513,0c-0.164,0-0.347,0.02-0.511,0c-0.165-0.02-0.347,0-0.512,0h-1.022 v-2.558h-2.559v5.115h-2.557v-5.115h-5.114v2.558h-2.559v5.115H52.18v-7.672h-2.558V36.1h2.558v-2.557h2.559V20.756h-2.047 c-0.116,0.066-0.409-0.084-0.512,0c-0.04,0.033,0,0.451,0,0.511v1.023c0,0.15,0.037,0.366,0,0.511 c-0.022,0.091,0.063,0.449,0,0.512c-0.085,0.085-0.408-0.069-0.511,0h-2.047v2.557h2.558v5.115h-2.558v1.023 c0,0.165,0.02,0.347,0,0.512c-0.02,0.167,0.01,0.343,0,0.512c-0.004,0.074,0.05,0.462,0,0.511c-0.085,0.086-0.408-0.067-0.512,0 h-2.045v-7.672h-2.046c-0.116,0.067-0.409-0.083-0.511,0c-0.041,0.034,0,0.452,0,0.512c0,0.166,0.02,0.347,0,0.512 c-0.02,0.163,0,0.345,0,0.512v1.022H41.95v2.046c0.067,0.116-0.083,0.409,0,0.511c0.033,0.041,0.452,0,0.512,0h1.023 c0.149,0,0.365-0.037,0.512,0c0.09,0.023,0.448-0.063,0.511,0c0.085,0.085-0.068,0.41,0,0.512v2.045H41.95v7.673h1.023 c0.164,0,0.348-0.02,0.512,0c0.167,0.02,0.343-0.009,0.512,0c0.074,0.004,0.462-0.049,0.511,0c0.085,0.085-0.068,0.409,0,0.511 v2.047C44.593,43.688,44.917,43.842,45.019,43.774z M62.411,48.889h2.557v2.557h-2.557V48.889z M57.297,46.331h2.557v2.558h-2.557 V46.331z M44.508,38.659V36.1h2.557v2.559H44.508z M75.199,51.445h-2.559v2.558h2.559V51.445z M75.199,48.889v-2.558h-5.115v2.558 H75.199z M47.065,56.561h-2.557v5.116h5.114V51.445h-2.557V56.561z M39.393,51.445c-0.034-0.04-0.452,0-0.512,0h-1.023 c-0.15,0-0.366,0.037-0.511,0c-0.09-0.021-0.449,0.063-0.511,0v2.558h2.558v-2.045C39.326,51.841,39.476,51.548,39.393,51.445z M41.95,46.331h2.558v-1.023c0-0.165-0.02-0.347,0-0.511c0.021-0.167-0.009-0.343,0-0.511c0.004-0.075-0.048-0.463,0-0.511h-5.115 c0.085,0.085-0.068,0.408,0,0.511v2.046h-2.558v1.023c0,0.165,0.02,0.348,0,0.511c-0.02,0.167,0.009,0.343,0,0.511 c-0.004,0.074,0.048,0.464,0,0.512h5.115V46.331z M36.835,50.935v-2.046c-0.085,0.085-0.41-0.068-0.512,0h-2.045v2.557h2.557 C36.75,51.36,36.903,51.038,36.835,50.935z"/></g></svg>